<svg id="Capa_1" data-name="Capa 1" xmlns="http://www.w3.org/2000/svg" viewBox="0 0 709 348"><text transform="translate(0 22)" style="font-size:25.907785415649414px;fill:#eed2ff;font-family:Poppins-Medium, Poppins;font-weight:500">Let <tspan x="43.9" y="0" style="fill:#d1ff40">cliente</tspan><tspan x="131.5" y="0" xml:space="preserve"> =  </tspan><tspan x="171.8" y="0" style="fill:#ededed">“Necesito una web!”</tspan><tspan x="0" y="31.1">Let </tspan><tspan x="43.9" y="31.1" style="fill:#d1ff40">reclutador</tspan><tspan x="180.2" y="31.1" xml:space="preserve"> = </tspan><tspan x="213.8" y="31.1" style="fill:#ededed">“Necesito un nuevo talento creativo...”</tspan><tspan x="0" y="93.3">if ( </tspan><tspan x="41.7" y="93.3" style="fill:#d1ff40">cliente</tspan><tspan x="129.3" y="93.3" xml:space="preserve"> || </tspan><tspan x="159.6" y="93.3" style="fill:#d1ff40">reclutador</tspan><tspan x="295.9" y="93.3" xml:space="preserve"> ) {</tspan><tspan x="0" y="124.4" style="letter-spacing:2.73999894427953em">	</tspan><tspan x="77.7" y="124.4" style="fill:#cd94ff">console.log</tspan><tspan x="227" y="124.4">(</tspan><tspan x="239.7" y="124.4" xml:space="preserve" style="fill:#ededed">”Un gusto! trabajemos juntos        “)</tspan><tspan x="0" y="155.4">}else {</tspan><tspan x="0" y="186.5" style="letter-spacing:2.73999894427953em">	</tspan><tspan x="77.7" y="186.5" style="fill:#d1ff40">seguirCodeando </tspan><tspan x="304" y="186.5">= true;</tspan><tspan x="0" y="217.6" style="letter-spacing:2.73999894427953em">	</tspan><tspan x="77.7" y="217.6" style="fill:#d1ff40">musicaOn </tspan><tspan x="219.1" y="217.6">= true;</tspan><tspan x="0" y="248.7" style="letter-spacing:2.73999894427953em">	</tspan><tspan x="77.7" y="248.7" style="fill:#d1ff40">cafeListo </tspan><tspan x="200.5" y="248.7">= true;</tspan><tspan x="0" y="279.8" style="letter-spacing:2.73999894427953em">	</tspan><tspan x="77.7" y="279.8" style="fill:#d1ff40">focus </tspan><tspan x="155.8" y="279.8">= 100;</tspan><tspan x="0" y="310.9">}</tspan></text><path d="M700.7,353.4a13.7,13.7,0,1,0,13.7,13.7A13.7,13.7,0,0,0,700.7,353.4Zm0,24.7a11,11,0,1,1,11-11A11,11,0,0,1,700.7,378.1Zm7.7-14.9a4.1,4.1,0,0,0-5.8,0,1.3,1.3,0,0,0,.2,1.9,1.4,1.4,0,0,0,1.7,0,1.4,1.4,0,0,1,2,0h0a1.4,1.4,0,0,0,1.9,0A1.2,1.2,0,0,0,708.4,363.2Zm-11.8,2.5a1.4,1.4,0,0,0,1.4-1.4,1.3,1.3,0,0,0-1.4-1.3,1.4,1.4,0,0,0-1.4,1.3A1.4,1.4,0,0,0,696.6,365.7Zm8.2,2.8h-8.2a1.4,1.4,0,0,0-1.4,1.3,1.4,1.4,0,0,0,1.4,1.4,4.1,4.1,0,0,0,4.1,4.1,4.1,4.1,0,0,0,4.1-4.1,1.4,1.4,0,0,0,1.4-1.4A1.3,1.3,0,0,0,704.8,368.5Zm-4.1,4.1a1.3,1.3,0,0,1-1.3-1.4h2.7A1.4,1.4,0,0,1,700.7,372.6Z" transform="translate(-51.1 -231.6)" style="fill:#ededed"/></svg>